<svg width="61" height="27" viewBox="0 0 61 27" fill="none" xmlns="http://www.w3.org/2000/svg">
<path d="M17.0422 13.4426C17.6044 6.69588 21.259 2.81099 22.6645 1.49526C19.8537 3.51355 18.1384 6.0864 17.0426 7.72994L17.0423 7.73049C15.6366 9.83884 14.2311 16.9566 14.2311 19.7677C14.2311 22.5789 12.5 20.5 11 18.5C9.211 16.1147 7.90607 14.1454 7.90607 6.41476C7.90607 -1.31588 2.2837 0.0896914 0.87813 2.19805C-0.527441 4.30641 -0.527424 9.83884 2.98649 16.2538C6.18953 22.1012 12.8255 28.2011 15.6366 26.7955C18.4478 25.39 16.3394 21.876 17.0422 13.4426Z" fill="#4F5153"/>
<path d="M36.0174 19.0651C39.953 14.5673 38.5943 7.82052 37.423 5.00938C38.8286 7.11772 40.9369 11.3344 40.9369 15.5511C40.9369 20.5206 36.7202 26.7957 31.8007 26.7957C29.6923 26.7957 22.7259 27.759 19.8534 19.7678C17.0422 11.9474 22.3132 4.30659 25.4757 1.49545C28.6382 -1.31569 34.6118 0.089883 34.6118 3.60381C34.6118 7.11774 31.8007 7.82053 29.6923 7.82053C27.584 7.82053 24.7728 10.6317 24.7728 16.254C24.7728 21.8762 31.0979 24.6874 36.0174 19.0651Z" fill="#EBAB42"/>
<path d="M46.5 0.499853C50.4356 -0.0623759 54 3.00014 53.5868 6.00017C51.4785 1.62517 47.5 1.5 45.8562 3.60367C44.2125 5.70734 48.6674 9.22596 53.5868 11.3343C58.5063 13.4427 60.6147 14.8482 60.6147 19.065C60.6147 23.2817 55.6952 26.7956 51.4785 26.7956C47.2618 26.7956 44.4506 25.39 42.3423 22.5789C40.2339 19.7677 42.3424 16.9566 44.4507 16.9566C49.3703 16.9566 47 21.8761 50.7757 21.8761C52.8841 21.8761 54.9924 19.065 53.5868 16.2538C52.1813 13.4427 45.1534 11.3343 43.045 7.82039C40.9367 4.30646 41.5805 1.20264 46.5 0.499853Z" fill="#4F5153"/>
</svg>
