<svg width="104" height="104" viewBox="0 0 104 104" fill="none" xmlns="http://www.w3.org/2000/svg">
<g filter="url(#filter0_d_47_404)">
<circle cx="52" cy="48" r="44" fill="white"/>
</g>
<path d="M39.0422 48.4426C39.6044 41.6959 43.259 37.811 44.6645 36.4953C41.8537 38.5136 40.1384 41.0864 39.0426 42.7299L39.0423 42.7305C37.6366 44.8388 36.2311 51.9566 36.2311 54.7677C36.2311 57.5789 34.5 55.5 33 53.5C31.211 51.1147 29.9061 49.1454 29.9061 41.4148C29.9061 33.6841 24.2837 35.0897 22.8781 37.198C21.4726 39.3064 21.4726 44.8388 24.9865 51.2538C28.1895 57.1012 34.8255 63.2011 37.6366 61.7955C40.4478 60.39 38.3394 56.876 39.0422 48.4426Z" fill="#4F5153"/>
<path d="M58.0174 54.0651C61.953 49.5673 60.5943 42.8205 59.423 40.0094C60.8286 42.1177 62.9369 46.3344 62.9369 50.5511C62.9369 55.5206 58.7202 61.7957 53.8007 61.7957C51.6923 61.7957 44.7259 62.759 41.8534 54.7678C39.0422 46.9474 44.3132 39.3066 47.4757 36.4954C50.6382 33.6843 56.6118 35.0899 56.6118 38.6038C56.6118 42.1177 53.8007 42.8205 51.6923 42.8205C49.584 42.8205 46.7728 45.6317 46.7728 51.254C46.7728 56.8762 53.0979 59.6874 58.0174 54.0651Z" fill="#EBAB42"/>
<path d="M68.5 35.4999C72.4356 34.9376 76 38.0001 75.5868 41.0002C73.4785 36.6252 69.5 36.5 67.8562 38.6037C66.2125 40.7073 70.6674 44.226 75.5868 46.3343C80.5063 48.4427 82.6147 49.8482 82.6147 54.065C82.6147 58.2817 77.6952 61.7956 73.4785 61.7956C69.2618 61.7956 66.4506 60.39 64.3423 57.5789C62.2339 54.7677 64.3424 51.9566 66.4507 51.9566C71.3703 51.9566 69 56.8761 72.7757 56.8761C74.8841 56.8761 76.9924 54.065 75.5868 51.2538C74.1813 48.4427 67.1534 46.3343 65.045 42.8204C62.9367 39.3065 63.5805 36.2026 68.5 35.4999Z" fill="#4F5153"/>
<defs>
<filter id="filter0_d_47_404" x="0" y="0" width="104" height="104" filterUnits="userSpaceOnUse" color-interpolation-filters="sRGB">
<feFlood flood-opacity="0" result="BackgroundImageFix"/>
<feColorMatrix in="SourceAlpha" type="matrix" values="0 0 0 0 0 0 0 0 0 0 0 0 0 0 0 0 0 0 127 0" result="hardAlpha"/>
<feOffset dy="4"/>
<feGaussianBlur stdDeviation="4"/>
<feComposite in2="hardAlpha" operator="out"/>
<feColorMatrix type="matrix" values="0 0 0 0 0.566667 0 0 0 0 0.493267 0 0 0 0 0.443889 0 0 0 0.2 0"/>
<feBlend mode="normal" in2="BackgroundImageFix" result="effect1_dropShadow_47_404"/>
<feBlend mode="normal" in="SourceGraphic" in2="effect1_dropShadow_47_404" result="shape"/>
</filter>
</defs>
</svg>
