<svg width="64" height="64" viewBox="0 0 64 64" fill="none" xmlns="http://www.w3.org/2000/svg">
<g clip-path="url(#clip0_28_117)">
<path d="M63.85 60.3833C63.4833 60.85 63 60.9666 62.4333 60.9666C58.1667 60.95 53.9167 60.9666 49.65 60.95C49.45 60.95 49.2333 60.95 49.0333 60.9166C48.5333 60.8166 48.2667 60.5 48.2667 60C48.2667 59.5 48.55 59.1833 49.05 59.1C49.25 59.0666 49.4667 59.0666 49.6667 59.0666C51.1 59.0666 52.5333 59.0666 53.9667 59.0666C54.1833 59.0666 54.4167 59.0666 54.6667 59.0666C54.6667 56.6833 54.6667 54.3833 54.6667 52.05C44.7 52.05 34.7667 52.05 24.7833 52.05C24.7833 54.3666 24.7833 56.6833 24.7833 59.0666C25.0667 59.0666 25.3333 59.0666 25.6 59.0666C32 59.0666 38.4 59.0666 44.8167 59.0666C45.05 59.0666 45.2833 59.0666 45.5 59.0833C46.0333 59.15 46.35 59.4666 46.35 59.9833C46.3667 60.5 46.05 60.8333 45.5333 60.9166C45.35 60.95 45.1667 60.95 44.9667 60.95C35.6333 60.95 26.3 60.95 16.9667 60.95C15.8333 60.95 15.5667 60.6833 15.5667 59.55C15.5667 55.3666 15.5667 51.2 15.5667 47.0166C15.5667 44.6166 16.6 43.15 18.85 42.25C19.0167 42.1833 19.1833 41.8666 19.1833 41.6666C19.2333 40.4166 19.1667 39.1666 19.3 37.9333C19.6167 35.15 22.0167 33.0166 24.8167 32.95C25.9667 32.9166 27.1 32.9333 28.25 32.95C28.9333 32.95 29.3167 33.3166 29.3167 33.9C29.3 34.4666 28.9 34.8166 28.2167 34.8166C27.1833 34.8333 26.1333 34.8166 25.1 34.8166C22.8667 34.8333 21.1833 36.4333 21.0833 38.6666C21.0333 39.7 21.05 40.75 21.0833 41.7833C21.0833 41.95 21.3 42.2166 21.4667 42.2833C23.55 43.05 24.6667 44.5833 24.7 46.8166C24.7167 47.9166 24.7 49.0166 24.7 50.1333C34.7167 50.1333 44.65 50.1333 54.6667 50.1333C54.6667 49.5833 54.65 49.05 54.6667 48.5166C54.6833 47.6 54.6 46.6666 54.7667 45.7833C55.1333 43.8666 56.4 42.7166 58.2667 42.1833C58.2667 40.8666 58.3833 39.55 58.2333 38.2666C58.0167 36.2166 56.3667 34.8333 54.3 34.8333C49.9167 34.8166 45.5333 34.8333 41.1333 34.8333C38.2167 34.8333 35.3167 34.8333 32.4 34.8166C32.0833 34.8166 31.7 34.7333 31.5 34.5333C31.3 34.3333 31.1833 33.9166 31.2667 33.65C31.3333 33.3833 31.6667 33.1666 31.9167 32.9833C32.0333 32.9 32.2333 32.95 32.4 32.95C39.6833 32.95 46.95 32.9333 54.2333 32.95C57.1 32.95 59.4833 34.7833 60 37.5C60.2167 38.6 60.1333 39.7666 60.1667 40.9166C60.1833 41.3333 60.1667 41.75 60.1667 42.1666C61.65 42.5666 62.7333 43.4 63.3833 44.7666C63.55 45.1333 63.6667 45.5333 63.8 45.9166C63.85 50.7333 63.85 55.55 63.85 60.3833ZM22.85 59.0333C22.85 58.7333 22.85 58.4833 22.85 58.25C22.85 55.8833 22.85 53.5166 22.85 51.15C22.85 49.7 22.85 48.25 22.85 46.7833C22.85 45.8 22.5 44.9833 21.6833 44.4333C20.8 43.8333 19.85 43.7666 18.9167 44.2666C17.9333 44.7833 17.45 45.65 17.45 46.75C17.45 50.7 17.45 54.6333 17.45 58.5833C17.45 58.7166 17.4833 58.8666 17.5 59.0333C19.2667 59.0333 21 59.0333 22.85 59.0333ZM61.8833 59.0166C61.9167 58.95 61.95 58.9 61.95 58.8666C61.95 54.7333 61.9667 50.6 61.95 46.4666C61.95 45.2833 61.0333 44.2833 59.9 44.0166C58.1667 43.6166 56.5833 44.8333 56.5833 46.6666C56.5667 50.6666 56.5833 54.6833 56.5833 58.6833C56.5833 58.7833 56.6167 58.8833 56.6333 59C58.4 59.0166 60.15 59.0166 61.8833 59.0166Z" fill="#EA9656"/>
<path d="M27.1833 5.2333C27.6333 5.66664 28.0666 6.11664 28.5333 6.51664C28.7 6.66664 28.9666 6.74997 29.2 6.74997C36.2 6.76664 43.2166 6.76664 50.2166 6.74997C50.4333 6.74997 50.7 6.64997 50.8666 6.49997C51.3333 6.09997 51.7666 5.64997 52.3166 5.11664C52.0333 5.06664 51.8833 5.0333 51.7333 5.0333C50.9 5.0333 50.0666 5.04997 49.2333 5.01664C48.5833 4.99997 48.2166 4.61664 48.2166 4.06664C48.2166 3.54997 48.5833 3.14997 49.2 3.14997C50.9833 3.1333 52.7833 3.1333 54.5666 3.14997C55.1833 3.16664 55.5 3.51664 55.55 4.1333C55.5666 4.29997 55.55 4.46664 55.55 4.6333C55.55 11.6 55.55 18.5666 55.55 25.5166C55.55 26.8166 55.3333 27.0333 54.0166 27.0333C44.4333 27.0333 34.85 27.0333 25.2667 27.0333C24.05 27.0333 23.8167 26.8 23.8167 25.5666C23.8167 18.5833 23.8167 11.6 23.8167 4.61664C23.8167 3.34997 24.05 3.11664 25.3 3.11664C31.8333 3.11664 38.35 3.11664 44.8833 3.11664C45.8666 3.11664 46.35 3.44997 46.3333 4.0833C46.3166 4.69997 45.85 4.99997 44.9 4.99997C39.25 4.99997 33.6 4.99997 27.9333 4.99997C27.7 4.99997 27.45 4.99997 27.2167 4.99997C27.2333 5.11664 27.2 5.1833 27.1833 5.2333ZM38.7333 18.45C38.9333 18.2333 39.1 18.0666 39.25 17.9C40.7166 16.2833 42.15 14.65 43.6333 13.0333C44.7833 11.7833 46.4666 11.8 47.6333 13.0166C48 13.4 48.3666 13.8166 48.7333 14.2166C49.15 14.6666 49.5666 15.1 50.0666 15.65C50.0666 13.25 50.0666 10.9833 50.0666 8.69997C43.15 8.69997 36.2666 8.69997 29.4 8.69997C29.4 11.8 29.4 14.85 29.4 18.0333C30.2833 17.05 31.0666 16.1666 31.8666 15.3C33.15 13.9 34.6666 13.9166 35.9333 15.3333C36.85 16.3666 37.7666 17.3833 38.7333 18.45ZM50.0833 21.5833C50.0833 20.5666 50.0833 19.65 50.0833 18.75C50.0833 18.6 50 18.4166 49.9 18.3166C48.7 16.9666 47.4833 15.6333 46.25 14.3C45.8333 13.85 45.4333 13.8666 45.0166 14.3C44.6333 14.7 44.2666 15.1333 43.8833 15.55C42.6 16.9833 41.3 18.4166 40 19.8666C40.4 20.3166 40.8 20.7166 41.15 21.1666C41.4166 21.5166 41.7333 21.6166 42.1666 21.6166C43.75 21.5833 45.3333 21.6 46.9 21.6C47.9333 21.5833 48.9666 21.5833 50.0833 21.5833ZM52.3833 25.1666C51.8166 24.6333 51.4 24.1833 50.9333 23.8C50.7333 23.6333 50.4333 23.4833 50.1833 23.4833C43.2 23.4666 36.2166 23.4666 29.2333 23.4666C29.05 23.4666 28.8333 23.4833 28.7167 23.5833C28.1833 24.05 27.6833 24.5666 27.0666 25.1666C35.55 25.1666 43.8666 25.1666 52.3833 25.1666ZM38.95 21.55C38.8666 21.4333 38.8333 21.3666 38.7833 21.3166C37.3333 19.7166 35.9 18.1 34.45 16.5C34.0333 16.05 33.7166 16.05 33.3 16.5C32.05 17.8666 30.8166 19.2333 29.6 20.6333C29.4167 20.85 29.3833 21.2166 29.25 21.55C32.5833 21.55 35.7333 21.55 38.95 21.55ZM25.75 23.8666C26.3 23.3166 26.7333 22.9 27.1333 22.45C27.3 22.25 27.4333 21.95 27.45 21.7C27.4666 17.3166 27.4667 12.9333 27.4667 8.54997C27.4667 8.36664 27.4666 8.1333 27.3666 8.01664C26.8833 7.49997 26.3833 6.99997 25.7833 6.39997C25.75 12.2833 25.75 17.9833 25.75 23.8666ZM53.6666 6.5833C53.6166 6.54997 53.5666 6.51664 53.5166 6.4833C53.1 6.91664 52.6666 7.3333 52.2833 7.79997C52.1166 7.99997 51.9666 8.29997 51.9666 8.54997C51.95 12.9333 51.95 17.3166 51.95 21.7166C51.95 21.9 51.95 22.1333 52.05 22.25C52.5333 22.7833 53.05 23.2666 53.65 23.8666C53.6666 17.9833 53.6666 12.2833 53.6666 6.5833Z" fill="#EA9656"/>
<path d="M12.0333 23.2666C11.2 23.2666 10.4333 23.2666 9.64999 23.2666C9.64999 34.0666 9.64999 44.8166 9.64999 55.6333C10.15 55.6666 10.65 55.6833 11.1333 55.7499C13.1333 55.9999 14.6833 57.7499 14.7 59.7666C14.7167 60.5999 14.3833 60.9499 13.5333 60.9499C11.5667 60.9666 9.58333 60.9499 7.61666 60.9499C6.36666 60.9499 5.11666 60.9499 3.86666 60.9499C2.91666 60.9333 2.58333 60.5666 2.65 59.6333C2.81666 57.3666 4.5 55.7666 6.85 55.6833C7.11666 55.6666 7.38333 55.6833 7.68333 55.6833C7.68333 44.8666 7.68333 34.0999 7.68333 23.2666C7.46666 23.2499 7.25 23.2333 7.03333 23.2333C5.08333 23.2333 3.13333 23.2333 1.16666 23.2333C0.166664 23.2333 -0.166669 22.7833 0.0499973 21.7999C1.11666 17.1833 2.16666 12.5666 3.21666 7.94994C3.38333 7.19994 3.66666 6.98328 4.43333 6.98328C7.26666 6.98328 10.0833 6.98328 12.9167 6.98328C13.6833 6.98328 13.95 7.19994 14.1333 7.94994C15.2 12.5666 16.25 17.1666 17.3 21.7833C17.5333 22.7833 17.1667 23.2166 16.1167 23.2166C15.45 23.2166 14.7833 23.2166 14.1167 23.2333C14.0833 23.2333 14.05 23.2666 13.9167 23.3166C13.9167 23.5166 13.9167 23.7666 13.9167 23.9999C13.9167 27.1166 13.9167 30.2333 13.9167 33.3499C13.9167 33.5833 13.9167 33.8166 13.8667 34.0333C13.75 34.5166 13.4167 34.7999 12.9167 34.7666C12.4333 34.7333 12.1167 34.4499 12.05 33.9333C12.0333 33.7333 12.0333 33.5166 12.0333 33.3166C12.0333 30.2166 12.0333 27.1166 12.0333 24.0166C12.0333 23.7833 12.0333 23.5499 12.0333 23.2666ZM2.08333 21.3166C6.5 21.3166 10.8333 21.3166 15.25 21.3166C14.3 17.1333 13.3667 12.9999 12.4167 8.88328C9.89999 8.88328 7.45 8.88328 4.93333 8.88328C4 12.9999 3.05 17.1166 2.08333 21.3166ZM12.6 59.0333C12.3167 58.2333 11.7333 57.6666 10.95 57.6333C9.43333 57.5666 7.91666 57.5666 6.41666 57.6333C5.6 57.6666 5.05 58.2166 4.7 59.0333C7.36666 59.0333 9.94999 59.0333 12.6 59.0333Z" fill="#EA9656"/>
<path d="M38.7 14.9666C37.2333 14.95 36.0667 13.75 36.1 12.2833C36.1333 10.8333 37.2833 9.69995 38.7333 9.69995C40.2 9.69995 41.3833 10.8833 41.3833 12.35C41.3667 13.8 40.1667 14.9833 38.7 14.9666ZM38.6833 13.1C39.1667 13.0833 39.5 12.7333 39.5 12.3333C39.5 11.9 39.1333 11.55 38.6833 11.5833C38.2167 11.6166 37.9667 11.9 37.9833 12.3666C38 12.8333 38.3 13.0666 38.6833 13.1Z" fill="#EA9656"/>
</g>
<defs>
<clipPath id="clip0_28_117">
<rect width="64" height="64" fill="white"/>
</clipPath>
</defs>
</svg>
