<svg width="64" height="64" viewBox="0 0 64 64" fill="none" xmlns="http://www.w3.org/2000/svg">
<path d="M52.0333 0C52.1667 0.05 52.3 0.1 52.4333 0.133333C54.55 0.65 56.0833 2.48333 56.1167 4.68333C56.1667 7.26667 56.1333 9.83333 56.1333 12.4167C56.1333 13.15 55.7833 13.4833 55.05 13.4833C53.0667 13.5 51.1 13.4833 49.1167 13.4833C48.9 13.4833 48.6667 13.4833 48.4167 13.4833C48.4167 17.4833 48.4167 21.4167 48.4167 25.5333C48.9 25.0333 49.2833 24.6333 49.6667 24.25C50.7333 23.1667 51.8167 22.1 52.8833 21.0333C53.4333 20.4833 53.6833 20.45 54.4167 20.8833C55.2167 20.0833 56.0833 19.2333 57.3167 19.4333C57.9833 19.55 58.7333 19.9 59.2167 20.3667C60.4667 21.5667 60.2 22.9333 58.5167 24.9833C58.8833 25.85 58.85 25.9833 58.1333 26.7167C57.15 27.7 56.1667 28.6833 55.1833 29.6833C55.15 29.7167 55.1333 29.75 54.8833 30.0167C55.15 30.1833 55.4667 30.2833 55.6833 30.5C56.9167 31.7333 56.9333 33.3833 55.7167 34.6C53.5 36.85 51.2833 39.1167 48.9833 41.2833C48.45 41.7833 48.35 42.2167 48.35 42.85C48.3667 45.8833 48.3667 48.9167 48.35 51.95C48.35 52.2 48.3833 52.5167 48.25 52.6667C48 52.9333 47.6667 53.2 47.3333 53.25C46.8833 53.3 46.5667 52.9667 46.5 52.4833C46.4667 52.2833 46.4833 52.0667 46.4833 51.8667C46.4833 47.65 46.4833 43.4167 46.4833 39.2C46.4833 38.9833 46.4833 38.75 46.4833 38.3667C46.2167 38.6167 46.05 38.7667 45.9 38.9167C41.9667 42.8333 38.05 46.7667 34.1167 50.7C33.3833 51.4333 33.2667 51.45 32.3167 51.0333C31.7667 51.6167 31.2 52.2167 30.6167 52.8C29.7 53.7167 28.65 54.1667 27.35 53.7333C27.2 53.6833 26.95 53.7667 26.8167 53.8833C26.4333 54.2167 26.1167 54.6 25.75 54.9333C25.2667 55.3667 24.75 55.35 24.3667 54.95C24.0167 54.5833 24.0333 54.0333 24.45 53.6167C24.85 53.2 25.3 52.8167 25.6667 52.4667C25.15 51.4833 24.6833 50.6 24.15 49.6C23.85 50.1833 23.6 50.7 23.3333 51.2C23.2167 51.4167 23.1167 51.65 22.9667 51.85C22.4667 52.55 21.8167 52.5333 21.4 51.7833C21.0167 51.1 20.6833 50.3833 20.2667 49.5833C19.9167 50.2833 19.6167 50.8833 19.3 51.4833C19.0833 51.9 18.8667 52.3167 18.3167 52.3C17.7833 52.2833 17.55 51.8667 17.3333 51.45C16.6 49.9833 15.8833 48.5 15.1167 47.05C14.9833 46.7833 14.6667 46.45 14.4333 46.4667C14.2 46.4667 13.9 46.8167 13.7667 47.0667C13.0333 48.4667 12.35 49.8833 11.6333 51.3C11.5333 51.4833 11.45 51.6833 11.3167 51.8333C11 52.2333 10.6 52.4167 10.1167 52.15C9.68334 51.9167 9.51667 51.4167 9.73334 50.9167C10 50.3333 10.3 49.7667 10.5833 49.1833C11.1167 48.1167 11.6333 47.0667 12.1667 46C12.6333 45.0667 13.3833 44.55 14.45 44.55C15.4833 44.5667 16.2167 45.0667 16.6667 45.9833C17.1833 47.0333 17.7333 48.0833 18.3 49.2167C18.65 48.5167 18.9667 47.9167 19.2667 47.3C19.4833 46.8833 19.7333 46.3667 20.2333 46.5C20.6 46.6 20.9667 46.9833 21.2 47.3333C21.5667 47.9 21.8333 48.5333 22.1667 49.2167C22.5333 48.4833 22.8167 47.8 23.2167 47.2C23.4167 46.9 23.8167 46.5667 24.15 46.55C24.4333 46.5333 24.8167 46.9 25 47.2C25.3833 47.8167 25.6667 48.4833 26.0333 49.2C26.75 48.4833 27.4333 47.8167 28.1167 47.1167C28.1833 47.05 28.2167 46.8333 28.1667 46.75C27.85 46.1833 28.0833 45.7667 28.4833 45.3667C29.9833 43.8667 31.4833 42.3667 32.9833 40.8667C35.8167 38.0333 38.65 35.1833 41.5 32.35C41.6833 32.1667 41.9333 31.9 42.1333 31.9C42.4833 31.9167 42.9167 32.0333 43.15 32.2667C43.5 32.6167 43.3667 33.0833 43.0333 33.4333C42.4167 34.0667 41.7833 34.7 41.1333 35.3333C40.5 35.9667 39.85 36.5833 39.2667 37.1667C40.2167 38.1167 41.15 39.0333 42.0167 39.9167C45.3667 36.5667 48.7833 33.15 52.1667 29.7667C51.3 28.9 50.3833 27.9833 49.4333 27.0333C48.4 28.0667 47.35 29.1167 46.3 30.1667C45.5833 30.8833 45.0667 30.9833 44.6 30.5C44.1667 30.0333 44.2 29.4833 44.9833 28.8667C46.1667 27.9333 46.4833 26.8167 46.4667 25.3167C46.3833 18.9167 46.4333 12.5167 46.4167 6.1C46.4167 4.63333 46.35 3.18333 47.45 1.85C47.05 1.85 46.8167 1.85 46.5667 1.85C38.0833 1.85 29.6 1.85 21.1167 1.85C20.9667 1.85 20.8333 1.85 20.6833 1.85C20.15 1.86667 19.6833 1.8 19.45 1.23333C19.3167 0.666667 19.6833 0.316667 20.0833 0C30.7333 0 41.3833 0 52.0333 0ZM54.2667 11.6C54.2667 9.35 54.2667 7.16667 54.2667 5C54.2667 3.2 53 1.88333 51.3167 1.88333C49.6333 1.88333 48.4 3.18333 48.3833 5C48.3833 7.01667 48.3833 9.03333 48.3833 11.05C48.3833 11.2333 48.4 11.4167 48.4167 11.6167C50.3833 11.6 52.2833 11.6 54.2667 11.6ZM33.15 48.85C35.6167 46.3833 38.1167 43.8667 40.5333 41.4667C39.6667 40.6 38.75 39.6833 37.8833 38.8167C35.45 41.25 32.95 43.75 30.5 46.2167C31.3667 47.0833 32.2833 47.9833 33.15 48.85ZM53.6 31.1333C53.4833 31.2833 53.4 31.45 53.2667 31.5833C51.7167 33.15 50.15 34.7 48.6 36.2667C48.5167 36.35 48.4 36.4667 48.4 36.5667C48.3833 37.4167 48.3833 38.2833 48.3833 39.25C48.6333 39.0167 48.7833 38.8833 48.9333 38.7333C50.6 37.0667 52.25 35.4167 53.9167 33.75C55.0333 32.6333 55.0333 32.35 53.8333 31.2667C53.8167 31.2333 53.7833 31.2167 53.6 31.1333ZM51.0833 25.65C51.95 26.5167 52.8833 27.4333 53.7167 28.2667C54.5667 27.4167 55.4833 26.5167 56.35 25.65C55.4833 24.8 54.5833 23.9 53.7167 23.0167C52.8333 23.8833 51.9333 24.8 51.0833 25.65ZM29.75 48.3C29.0167 49.0167 28.25 49.7 27.5667 50.4333C27.2 50.8333 27.2667 51.3333 27.65 51.7167C28.0167 52.0833 28.5167 52.1667 28.9 51.8167C29.65 51.1167 30.35 50.35 31.0667 49.6C30.6333 49.1833 30.2 48.7333 29.75 48.3ZM57.15 23.65C57.6167 23.1167 58.35 22.7833 58.0667 21.9833C57.9667 21.7 57.5833 21.3667 57.2833 21.3C56.5333 21.15 56.2167 21.8333 55.7833 22.2C56.25 22.7 56.6833 23.15 57.15 23.65Z" fill="#EA9656"/>
<path d="M16.7167 0C16.75 0.05 16.7833 0.1 16.8167 0.133333C17.2333 0.433333 17.35 0.833333 17.1833 1.28333C17.0167 1.71667 16.6333 1.86667 16.1833 1.86667C13.7833 1.86667 11.4 1.86667 9 1.86667C6.93333 1.86667 5.73333 3.06667 5.73333 5.11667C5.73333 23.85 5.73333 42.5833 5.73333 61.3333C5.73333 61.5333 5.73333 61.7333 5.73333 61.9833C19.3333 61.9833 32.8833 61.9833 46.5167 61.9833C46.5167 61.45 46.5167 60.9167 46.5167 60.3833C46.5167 59.1167 46.5167 57.85 46.5167 56.5833C46.5167 55.9167 46.8333 55.55 47.4 55.5167C47.9833 55.5 48.3833 55.8833 48.3833 56.55C48.4 58.65 48.4 60.75 48.3833 62.85C48.3833 63.5333 48.0167 63.8667 47.3333 63.8833C47.1667 63.8833 47 63.8833 46.8333 63.8833C33.0167 63.8833 19.2167 63.8833 5.4 63.8833C4.06667 63.8833 3.86667 63.6833 3.86667 62.3167C3.86667 43.4833 3.9 24.6333 3.83333 5.8C3.83333 3.08333 4.83333 0.75 7.98333 0C10.8833 0 13.8 0 16.7167 0Z" fill="#EA9656"/>
<path d="M26.1333 17.0666C21.1667 17.0666 16.2 17.0666 11.2333 17.0666C11.05 17.0666 10.85 17.0833 10.6667 17.05C10.1333 17 9.75 16.6 9.75 16.1166C9.75 15.6 10.15 15.2166 10.7167 15.2C10.8833 15.1833 11.05 15.2 11.2167 15.2C21.1667 15.2 31.1333 15.2 41.0833 15.2C41.2667 15.2 41.4667 15.1833 41.65 15.2C42.1833 15.25 42.5 15.5333 42.5333 16.0666C42.5833 16.5666 42.2333 16.9833 41.7 17.05C41.5 17.0833 41.2833 17.0666 41.0833 17.0666C36.1 17.0666 31.1167 17.0666 26.1333 17.0666Z" fill="#EA9656"/>
<path d="M24.3167 19.0667C28.7 19.0667 33.0833 19.0667 37.4667 19.0667C37.65 19.0667 37.85 19.05 38.0333 19.0833C38.5667 19.1667 38.8667 19.4833 38.8667 20C38.8667 20.4833 38.5833 20.8167 38.0833 20.9167C37.8833 20.95 37.6667 20.9333 37.4667 20.9333C28.7 20.9333 19.9167 20.9333 11.15 20.9333C11 20.9333 10.8667 20.9333 10.7167 20.9333C10.1333 20.8833 9.75 20.5 9.75 20C9.75 19.4833 10.15 19.1 10.7333 19.0667C11.2333 19.05 11.7333 19.0667 12.2333 19.0667C16.25 19.0667 20.2833 19.0667 24.3167 19.0667Z" fill="#EA9656"/>
<path d="M21.3167 24.8167C17.9 24.8167 14.5 24.8167 11.0833 24.8167C10.9 24.8167 10.7 24.8333 10.5167 24.8C10.0333 24.7 9.75 24.3667 9.75 23.8833C9.75 23.4167 10.0167 23.1 10.4667 22.9833C10.6167 22.9333 10.8 22.95 10.9667 22.95C17.85 22.95 24.7333 22.95 31.6167 22.95C31.7833 22.95 31.95 22.9333 32.1167 22.9833C32.6 23.1167 32.8667 23.4167 32.85 23.9333C32.8333 24.4333 32.5333 24.7333 32.05 24.8167C31.8667 24.85 31.6833 24.8333 31.4833 24.8333C28.1 24.8167 24.7167 24.8167 21.3167 24.8167Z" fill="#EA9656"/>
<path d="M19.3333 26.8167C22.1 26.8167 24.8667 26.8167 27.6333 26.8167C27.8333 26.8167 28.05 26.8 28.25 26.85C28.7167 26.9834 29 27.3 28.9667 27.8167C28.9333 28.3167 28.6333 28.6 28.1333 28.6833C27.9667 28.7 27.8 28.7 27.6333 28.7C22.1167 28.7 16.6167 28.7 11.1 28.7C10.95 28.7 10.8 28.7 10.6667 28.7C10.1333 28.65 9.73333 28.2667 9.76667 27.7834C9.8 27.2667 10.0833 26.9334 10.6167 26.85C10.8 26.8167 10.9833 26.8334 11.1833 26.8334C13.8833 26.8167 16.6167 26.8167 19.3333 26.8167Z" fill="#EA9656"/>
</svg>
