<svg width="64" height="64" viewBox="0 0 64 64" fill="none" xmlns="http://www.w3.org/2000/svg">
<g clip-path="url(#clip0_28_156)">
<path d="M63.8667 42.3333C63.35 44.0167 62.15 44.8833 60.5 45.2833C59.45 45.55 58.4333 45.9 57.4167 46.2833C57.1 46.4 56.75 46.65 56.5667 46.9333C54.6667 50.0833 52 52.4 48.8167 54.1667C48.4667 54.3667 48.2667 54.5833 48.2 55C47.8333 57.0833 47.4333 59.1667 47.0167 61.25C46.7667 62.5667 45.9167 63.2667 44.5833 63.2667C43.25 63.2833 41.9167 63.2667 40.5833 63.2667C39.2167 63.2667 38.4 62.6 38.1167 61.2833C37.8833 60.1667 37.6833 59.05 37.4833 58.05C34.1833 58.05 30.9333 58.05 27.6333 58.05C27.4333 59.0833 27.2333 60.1 27.05 61.1167C26.7833 62.55 25.9667 63.25 24.5167 63.2667C23.2333 63.2667 21.9333 63.2667 20.65 63.2667C19.1667 63.2667 18.35 62.5667 18.0667 61.1C17.7 59.2 17.3167 57.3167 16.9833 55.4167C16.9167 55 16.7333 54.7667 16.3833 54.5667C11.6 51.7833 8.48333 47.7667 7.43333 42.2833C7.08333 40.4167 7.03333 38.5 6.91667 36.5833C6.66667 36.3167 6.5 36.5167 6.31667 36.8167C5.33333 38.3833 4.03333 39.5667 2.18333 40.0167C1.8 40.1 1.4 40.1333 1.01667 40.1333C0.399999 40.1333 -5.64381e-07 39.7333 -0.0166672 39.2C-0.0333339 38.65 0.333333 38.2667 0.966666 38.2167C2.46667 38.1 3.63333 37.4 4.56667 36.15C4.33333 36.0833 4.16667 36.0333 4 35.9833C3.43333 35.7833 2.85 35.6167 2.31667 35.35C0.683333 34.5167 0.283333 33.1333 1.18333 31.6833C2.13333 30.1833 3.73333 29.85 5.15 30.8666C6.26667 31.6666 6.8 32.8167 6.96667 34.15C6.98333 34.3 7 34.45 7.18333 34.6333C7.23333 34.45 7.31667 34.2833 7.35 34.1C8.31667 28.5833 11.2333 24.4333 16.0167 21.55C16.6333 21.1833 17.1833 21.2666 17.4833 21.75C17.7833 22.25 17.6167 22.75 16.9667 23.1333C12.8833 25.5833 10.2667 29.0833 9.3 33.7667C8.63333 37.0333 8.68333 40.3 9.65 43.5167C10.9167 47.7 13.55 50.8 17.3333 52.9333C18.2333 53.4333 18.7 54.0833 18.85 55.1C19.15 56.9833 19.5667 58.85 19.9167 60.7333C20 61.2333 20.2167 61.45 20.7333 61.4333C21.9833 61.4 23.2333 61.4 24.4833 61.4333C24.9833 61.45 25.1833 61.25 25.2667 60.7667C25.4333 59.7667 25.65 58.7667 25.8333 57.7667C26.0667 56.4833 26.55 56.0667 27.8167 56.1833C31.0667 56.5 34.2833 56.4333 37.5167 55.9667C38.45 55.8333 39.0833 56.35 39.2833 57.3167C39.5 58.45 39.7333 59.6 39.9167 60.75C40 61.2667 40.2333 61.45 40.75 61.4333C41.9833 61.4 43.2 61.4 44.4333 61.4333C45 61.45 45.2 61.2 45.2833 60.7C45.6833 58.5333 46.1 56.3833 46.5 54.2167C46.6167 53.55 46.95 53.1 47.55 52.7833C50.6833 51.1167 53.2833 48.9 55.1 45.8167C55.5167 45.1167 56.15 44.7167 56.9167 44.4833C58.15 44.1 59.3667 43.7167 60.6 43.3167C61.6667 42.9667 62.0167 42.4833 62.0167 41.35C62.0167 40.0667 62.0167 38.7667 62.0167 37.4833C62.0167 36.5333 61.65 36.0167 60.75 35.7167C60 35.4667 59.25 35.2167 58.5 35C57.3833 34.6667 56.65 33.95 56.2833 32.8333C55.75 31.15 54.9167 29.6333 53.8333 28.2333C53.7167 28.0833 53.5667 27.9333 53.4 27.7167C53.2833 27.9667 53.2 28.15 53.1167 28.3333C52.25 30.5667 50.5333 31.4833 48.2333 31.4667C43.9833 31.45 40.8833 28.4333 40.8167 24.2C40.8 23.0833 40.9333 21.9666 41.0167 20.75C40.6 20.65 40.1 20.5166 39.6 20.4333C39.4833 20.4166 39.3 20.5 39.25 20.5833C38.2833 21.9833 37.0667 23.1333 35.5667 24.1333C36.1333 24.3166 36.6 24.45 37.0667 24.6166C37.7333 24.85 37.9833 25.2666 37.8167 25.8333C37.65 26.3666 37.15 26.6 36.5 26.3833C33.85 25.5166 31.1333 25.1166 28.3333 25.1666C25.9333 25.2166 23.5833 25.6 21.2833 26.3166C21.0167 26.4 20.6667 26.5166 20.45 26.4166C20.15 26.2666 19.85 25.9666 19.75 25.6666C19.6 25.2333 19.8833 24.85 20.3167 24.6833C20.8333 24.4833 21.3667 24.35 21.9833 24.15C21.8 24 21.6833 23.9 21.5667 23.8166C17.3 20.8 15.2667 15.6333 16.4167 10.6333C17.5833 5.51664 21.6667 1.68331 26.8667 0.849978C32.1333 -2.2471e-05 37.6 2.74998 40.0167 7.46665C40.35 8.11665 40.25 8.64998 39.7333 8.93331C39.2333 9.19998 38.7667 8.99998 38.4 8.39998C38.3667 8.34998 38.3333 8.28331 38.3 8.23331C36.0833 4.43331 32.7667 2.51664 28.3833 2.58331C23.4 2.66664 19.05 6.46664 18.1333 11.45C17.2167 16.45 20 21.55 24.65 23.3833C24.95 23.5 25.3 23.5166 25.6167 23.4833C27.7333 23.2333 29.85 23.2333 31.9667 23.4833C32.3333 23.5333 32.7667 23.4666 33.1 23.3166C36.9833 21.5166 39.15 18.4666 39.5833 14.2C39.6167 13.9 39.6667 13.5 39.8667 13.35C40.1167 13.15 40.5833 13.0166 40.8667 13.1166C41.1333 13.2166 41.45 13.7 41.4167 13.95C41.2167 15.3 40.9 16.6333 40.6167 17.9666C40.5667 18.1833 40.4667 18.3833 40.35 18.6666C41.2667 18.8 42.0167 19.25 43.0333 18.7333C45.4167 17.55 47.8833 16.5333 50.5 15.9833C50.6833 15.95 50.8667 15.9166 51.05 15.8833C53.1833 15.6166 54.0833 16.2833 54.4 18.45C54.7333 20.6833 54.5 22.8833 54.1167 25.0833C54.0667 25.3333 54.15 25.7166 54.3333 25.9C56 27.75 57.2667 29.8167 58.0333 32.1833C58.2167 32.7333 58.5333 33.0667 59.0833 33.2167C59.5667 33.35 60.0333 33.55 60.5167 33.65C62.1667 34.0333 63.3667 34.9167 63.8833 36.6C63.8667 38.5167 63.8667 40.4167 63.8667 42.3333ZM52.7333 20.7666C52.6667 20.0166 52.6167 19.2833 52.5167 18.5333C52.3833 17.6333 52.2167 17.5166 51.3167 17.6833C48.5833 18.2 46.0667 19.3166 43.55 20.4833C43.2667 20.6166 42.9667 21.0166 42.9167 21.3333C42.7667 22.4166 42.6167 23.5333 42.6833 24.6166C42.85 27.1166 44.4 28.9333 46.85 29.4C50.0667 30 50.8833 29.1167 51.6833 26.7667C52.3667 24.8333 52.65 22.8166 52.7333 20.7666ZM5.13333 34.4167C4.98333 33.3666 4.65 32.6667 3.86667 32.25C3.41667 32 3.01667 32.2 2.71667 32.75C2.46667 33.2 2.68333 33.4833 3.05 33.6333C3.68333 33.9 4.35 34.1166 5.13333 34.4167Z" fill="#EA9656"/>
<path d="M28.7 17.55C28.7 16.3833 28.7167 15.2333 28.6833 14.0666C28.6833 13.9166 28.5 13.7333 28.35 13.65C27.9833 13.45 27.5833 13.3333 27.2167 13.1333C26.05 12.55 25.5 11.5833 25.6 10.3C25.7 8.99996 26.4 8.14996 27.6333 7.74996C27.9667 7.63329 28.3 7.56663 28.5333 7.36663C28.7333 7.13329 28.9333 6.89996 29.1333 6.66663C29.3667 6.88329 29.6167 7.08329 29.85 7.29996C29.8167 7.33329 29.7833 7.34996 29.75 7.38329C30.4 7.54996 31.0833 7.66663 31.7167 7.93329C31.9833 8.04996 32.2833 8.44996 32.3 8.74996C32.35 9.39996 31.8167 9.68329 31.2167 9.44996C30.75 9.26662 30.2667 9.09996 29.6833 8.89996C29.6833 10.05 29.6667 11.0666 29.7 12.0833C29.7 12.2 29.8667 12.3333 29.9833 12.4166C30.1833 12.5333 30.4 12.6 30.6 12.7C32.1 13.4166 32.8 14.5833 32.65 16.1333C32.5 17.7333 31.6833 18.6666 30.0167 19.1C29.9167 19.1333 29.8167 19.15 29.7167 19.1666C29.7667 19.2166 29.8 19.2666 29.85 19.3C29.6333 19.55 29.4 19.8166 29.1833 20.0666C28.9667 19.8333 28.75 19.6 28.5167 19.35C28.55 19.3166 28.5833 19.3 28.6167 19.2666C28 19.1 27.35 19.0166 26.7833 18.75C26.3 18.5333 25.85 18.15 25.4833 17.75C25.1333 17.3666 25.2667 16.8833 25.6333 16.5166C26.0167 16.1333 26.3333 16.4333 26.6667 16.65C27.2667 17.0333 27.8833 17.3666 28.5 17.7166C28.5833 17.6666 28.6333 17.6166 28.7 17.55ZM29.6167 14.2C29.6167 15.3166 29.6167 16.4 29.6167 17.5C30.4833 17.3833 30.95 16.9 31.0167 16.0833C31.0833 15.2 30.6 14.55 29.6167 14.2ZM28.7833 9.04996C27.7167 9.21662 27.2167 9.66662 27.2333 10.4166C27.25 11.1833 27.9 11.7833 28.7833 11.8666C28.7833 10.9333 28.7833 9.99996 28.7833 9.04996Z" fill="#EA9656"/>
<path d="M50.6333 37.75C49.05 37.7667 47.7667 36.6333 47.5667 35.0333C47.4833 34.3833 47.8 33.9 48.3333 33.8166C48.9167 33.7333 49.2833 34.0666 49.4 34.75C49.5167 35.4667 49.95 35.8833 50.5833 35.8833C51.2167 35.8833 51.65 35.4667 51.7667 34.75C51.8833 34.0666 52.25 33.7333 52.8333 33.8166C53.3833 33.8833 53.6833 34.3666 53.6167 35.0333C53.4667 36.5667 52.1667 37.75 50.6333 37.75Z" fill="#EA9656"/>
</g>
<defs>
<clipPath id="clip0_28_156">
<rect width="64" height="64" fill="white"/>
</clipPath>
</defs>
</svg>
