<?xml version="1.0" encoding="utf-8"?><svg xmlns="http://www.w3.org/2000/svg" xmlns:xlink="http://www.w3.org/1999/xlink"><symbol viewBox="0 0 22 24" id="basket" xmlns="http://www.w3.org/2000/svg"><g clip-path="url(#aa)"><path d="M10.363 18.443a2.046 2.046 0 00-2.045 2.042 2.046 2.046 0 004.09 0 2.046 2.046 0 00-2.045-2.042zm6.134 0a2.046 2.046 0 00-2.045 2.042 2.046 2.046 0 004.089 0 2.046 2.046 0 00-2.044-2.042zm3.978-8.199L7.413 6.891a.614.614 0 00-.75.73L8.67 16.4h-.786L5.482 5.895a.613.613 0 00-.474-.464l-4.27-.882A.614.614 0 00.489 5.75l3.885.802L6.797 17.15a.613.613 0 00.598.477h12.07a.615.615 0 00.607-.53l.858-6.175a.613.613 0 00-.455-.678zm-8.14 3.91a.613.613 0 01-1.227 0v-2.696a.613.613 0 011.227 0v2.696zm2.625 0a.613.613 0 01-1.227 0v-1.88a.613.613 0 011.227 0v1.88zm2.625 0a.613.613 0 01-1.227 0v-1.226a.613.613 0 011.227 0v1.226z"/></g><path fill-rule="evenodd" clip-rule="evenodd" d="M16.268 4.568a2.996 2.996 0 00-1.693-.523c-.627 0-1.21.193-1.693.523-.28-.843-.492-1.752-.492-2.383C12.39.98 13.37 0 14.575 0s2.185.98 2.185 2.185c0 .631-.212 1.54-.492 2.383zm-4.722 2.274l.024.006v-.011l-.024.005zm4.972 1.217c-1.333-.33-2.766-.681-4.129-1.013a2.185 2.185 0 114.129 1.013zm4.436 1.103c-.866-.217-2.155-.538-3.618-.9a2.995 2.995 0 00.243-1.425c.87.18 1.762.45 2.308.765.596.344.969.928 1.067 1.56zM9.869 6.439c-.36-.086-.706-.167-1.03-.243a2.19 2.19 0 01-.376-2.667 2.188 2.188 0 013.147-.7c.098.738.338 1.599.61 2.353a3.01 3.01 0 00-.449.774c-.628.113-1.305.278-1.902.483zm10.124.075a3.43 3.43 0 01-.217.114c-.696-.295-1.587-.526-2.397-.672a3.01 3.01 0 00-.449-.774c.262-.727.494-1.553.599-2.273.095-.067.189-.128.278-.18a2.188 2.188 0 012.986.8 2.188 2.188 0 01-.8 2.985z"/><defs><clipPath id="aa"><path transform="translate(0 3.064)" d="M0 0h20.936v20.936H0z"/></clipPath></defs></symbol><symbol viewBox="0 0 24 24" id="call-calling" xmlns="http://www.w3.org/2000/svg"><path d="M17.45 22.75c-1.13 0-2.32-.27-3.55-.79-1.2-.51-2.41-1.21-3.59-2.06-1.17-.86-2.3-1.82-3.37-2.87-1.06-1.07-2.02-2.2-2.87-3.36-.86-1.2-1.55-2.4-2.04-3.56-.52-1.24-.78-2.44-.78-3.57 0-.78.14-1.52.41-2.21.28-.71.73-1.37 1.34-1.94.77-.76 1.65-1.14 2.59-1.14.39 0 .79.09 1.13.25.39.18.72.45.96.81L10 5.58c.21.29.37.57.48.85.13.3.2.6.2.89 0 .38-.11.75-.32 1.1a4 4 0 01-.67.85l-.68.71c.01.03.02.05.03.07.12.21.36.57.82 1.11.49.56.95 1.07 1.41 1.54.59.58 1.08 1.04 1.54 1.42.57.48.94.72 1.16.83l-.02.05.73-.72c.31-.31.61-.54.9-.69.55-.34 1.25-.4 1.95-.11.26.11.54.26.84.47l3.32 2.36c.37.25.64.57.8.95.15.38.22.73.22 1.08 0 .48-.11.96-.32 1.41-.21.45-.47.84-.8 1.2-.57.63-1.19 1.08-1.91 1.37-.69.28-1.44.43-2.23.43zm-11.86-20c-.55 0-1.06.24-1.55.72-.46.43-.78.9-.98 1.41-.21.52-.31 1.07-.31 1.66 0 .93.22 1.94.66 2.98.45 1.06 1.08 2.16 1.88 3.26.8 1.1 1.71 2.17 2.71 3.18 1 .99 2.08 1.91 3.19 2.72 1.08.79 2.19 1.43 3.29 1.89 1.71.73 3.31.9 4.63.35.51-.21.96-.53 1.37-.99.23-.25.41-.52.56-.84.12-.25.18-.51.18-.77 0-.16-.03-.32-.11-.5a.757.757 0 00-.28-.3l-3.32-2.36c-.2-.14-.38-.24-.55-.31-.22-.09-.31-.18-.65.03-.2.1-.38.25-.58.45l-.76.75c-.39.38-.99.47-1.45.3l-.27-.12c-.41-.22-.89-.56-1.42-1.01-.48-.41-1-.89-1.63-1.51-.49-.5-.98-1.03-1.49-1.62-.47-.55-.81-1.02-1.02-1.41l-.12-.3c-.06-.23-.08-.36-.08-.5 0-.36.13-.68.38-.93l.75-.78c.2-.2.35-.39.45-.56.08-.13.11-.24.11-.34 0-.08-.03-.2-.08-.32-.07-.16-.18-.34-.32-.53L6.46 3.17a.922.922 0 00-.37-.31c-.16-.07-.33-.11-.5-.11zm8.36 12.26l-.16.68.27-.7c-.05-.01-.09 0-.11.02zm4.55-5.26c-.41 0-.75-.34-.75-.75 0-.36-.36-1.11-.96-1.75-.59-.63-1.24-1-1.79-1-.41 0-.75-.34-.75-.75s.34-.75.75-.75c.97 0 1.99.52 2.88 1.47.83.89 1.37 1.98 1.37 2.78 0 .41-.34.75-.75.75zm3.5 0c-.41 0-.75-.34-.75-.75 0-3.45-2.8-6.25-6.25-6.25-.41 0-.75-.34-.75-.75s.34-.75.75-.75c4.27 0 7.75 3.48 7.75 7.75 0 .41-.34.75-.75.75z"/></symbol><symbol viewBox="0 0 344.96 344.96" id="check" xmlns="http://www.w3.org/2000/svg"><g data-name="Слой 2"><path class="ccls-1" d="M321.85 86.24l-40-23.11-23.1-40H212.5L172.48 0l-40 23.11H86.24l-23.11 40-40 23.1v46.21L0 172.48l23.11 40v46.21l40 23.11 23.11 40h46.21l40 23.1 40-23.11h46.21l23.11-40 40-23.11V212.5l23.11-40-23.11-40V86.24zM156.91 243.07a16.79 16.79 0 01-23.34 0l-50.45-50.44a16.19 16.19 0 010-22.89l13.35-13.35a16.19 16.19 0 0122.89 0l25.87 25.87 80.34-80.35a16.19 16.19 0 0122.89 0l13.35 13.35a16.19 16.19 0 010 22.89z" data-name="Capa 1"/></g></symbol><symbol viewBox="0 0 24 24" id="chevron-left" xmlns="http://www.w3.org/2000/svg"><path d="M14.707 7.707a1 1 0 00-1.414-1.414l1.414 1.414zM9 12l-.707-.707a1 1 0 000 1.414L9 12zm4.293 5.707a1 1 0 001.414-1.414l-1.414 1.414zm0-11.414l-5 5 1.414 1.414 5-5-1.414-1.414zm-5 6.414l5 5 1.414-1.414-5-5-1.414 1.414z"/></symbol><symbol viewBox="0 0 24 24" id="chevron-right" xmlns="http://www.w3.org/2000/svg"><path d="M9.293 7.707a1 1 0 011.414-1.414L9.293 7.707zM15 12l.707-.707a1 1 0 010 1.414L15 12zm-4.293 5.707a1 1 0 01-1.414-1.414l1.414 1.414zm0-11.414l5 5-1.414 1.414-5-5 1.414-1.414zm5 6.414l-5 5-1.414-1.414 5-5 1.414 1.414z"/></symbol><symbol viewBox="0 0 24 24" id="fb" xmlns="http://www.w3.org/2000/svg"><path d="M13.397 20.997v-8.196h2.765l.411-3.209h-3.176V7.548c0-.926.258-1.56 1.587-1.56h1.684v-2.86A22.108 22.108 0 0014.201 3c-2.444 0-4.122 1.492-4.122 4.231v2.355H7.332v3.21h2.753v8.201h3.312z"/></symbol><symbol viewBox="0 0 24 24" id="instagram" xmlns="http://www.w3.org/2000/svg"><path d="M11.999 7.377a4.624 4.624 0 100 9.248 4.624 4.624 0 000-9.248zm0 7.627a3.004 3.004 0 110-6.008 3.004 3.004 0 010 6.008zm4.807-6.719a1.078 1.078 0 100-2.156 1.078 1.078 0 000 2.156z"/><path d="M20.533 6.11A4.605 4.605 0 0017.9 3.48a6.607 6.607 0 00-2.186-.42c-.963-.042-1.268-.054-3.71-.054s-2.755 0-3.71.054a6.554 6.554 0 00-2.184.42 4.6 4.6 0 00-2.633 2.63 6.585 6.585 0 00-.419 2.186c-.043.962-.056 1.267-.056 3.71 0 2.442 0 2.753.056 3.71.015.748.156 1.486.419 2.187a4.61 4.61 0 002.634 2.632 6.583 6.583 0 002.185.45c.963.042 1.268.055 3.71.055s2.755 0 3.71-.055a6.616 6.616 0 002.186-.42 4.613 4.613 0 002.633-2.632c.263-.7.404-1.438.419-2.186.043-.962.056-1.267.056-3.71s0-2.753-.056-3.71a6.583 6.583 0 00-.421-2.217zm-1.218 9.533a5.046 5.046 0 01-.311 1.688 2.987 2.987 0 01-1.712 1.71c-.535.2-1.1.305-1.67.312-.95.044-1.218.055-3.654.055-2.438 0-2.687 0-3.655-.055a4.961 4.961 0 01-1.67-.311 2.984 2.984 0 01-1.718-1.711 5.08 5.08 0 01-.311-1.67c-.043-.95-.053-1.217-.053-3.653 0-2.437 0-2.686.053-3.655a5.038 5.038 0 01.311-1.687c.305-.79.93-1.41 1.719-1.712a5.01 5.01 0 011.669-.311c.95-.043 1.218-.055 3.655-.055s2.687 0 3.654.055a4.96 4.96 0 011.67.31 2.99 2.99 0 011.712 1.713 5.06 5.06 0 01.311 1.669c.043.95.054 1.218.054 3.655 0 2.436 0 2.698-.043 3.654h-.011v-.001z"/></symbol><symbol viewBox="0 0 24 24" id="location" xmlns="http://www.w3.org/2000/svg"><path d="M12 14.17c-2.13 0-3.87-1.73-3.87-3.87S9.87 6.44 12 6.44s3.87 1.73 3.87 3.87-1.74 3.86-3.87 3.86zm0-6.23c-1.3 0-2.37 1.06-2.37 2.37s1.06 2.37 2.37 2.37 2.37-1.06 2.37-2.37S13.3 7.94 12 7.94z"/><path d="M12 22.76a5.97 5.97 0 01-4.13-1.67c-2.95-2.84-6.21-7.37-4.98-12.76C4 3.44 8.27 1.25 12 1.25h.01c3.73 0 8 2.19 9.11 7.09 1.22 5.39-2.04 9.91-4.99 12.75A5.97 5.97 0 0112 22.76zm0-20.01c-2.91 0-6.65 1.55-7.64 5.91C3.28 13.37 6.24 17.43 8.92 20a4.426 4.426 0 006.17 0c2.67-2.57 5.63-6.63 4.57-11.34-1-4.36-4.75-5.91-7.66-5.91z"/></symbol><symbol viewBox="0 0 24 24" id="sms" xmlns="http://www.w3.org/2000/svg"><path d="M17 21.25H7c-3.65 0-5.75-2.1-5.75-5.75v-7c0-3.65 2.1-5.75 5.75-5.75h10c3.65 0 5.75 2.1 5.75 5.75v7c0 3.65-2.1 5.75-5.75 5.75zm-10-17c-2.86 0-4.25 1.39-4.25 4.25v7c0 2.86 1.39 4.25 4.25 4.25h10c2.86 0 4.25-1.39 4.25-4.25v-7c0-2.86-1.39-4.25-4.25-4.25H7z"/><path d="M12 12.87c-.84 0-1.69-.26-2.34-.79l-3.13-2.5a.748.748 0 01.93-1.17l3.13 2.5c.76.61 2.05.61 2.81 0l3.13-2.5c.32-.26.8-.21 1.05.12.26.32.21.8-.12 1.05l-3.13 2.5c-.64.53-1.49.79-2.33.79z"/></symbol><symbol viewBox="0 0 16 16" id="telegram" xmlns="http://www.w3.org/2000/svg"><path d="M14.629 3.698l-2.012 9.618c-.152.679-.548.848-1.11.528l-3.066-2.29-1.48 1.442c-.163.166-.3.305-.616.305l.22-3.165 5.683-5.204c.247-.223-.054-.347-.384-.123L4.839 9.29l-3.024-.959c-.658-.208-.67-.667.137-.986L13.78 2.727c.548-.208 1.027.124.849.971z"/></symbol><symbol viewBox="0 0 24 24" id="tg" xmlns="http://www.w3.org/2000/svg"><path fill-rule="evenodd" clip-rule="evenodd" d="M24 12c0 6.627-5.373 12-12 12S0 18.627 0 12 5.373 0 12 0s12 5.373 12 12zM8.036 10.9c-1.202.526-2.437 1.065-3.567 1.687-.59.432.194.737.93 1.024.116.045.232.09.34.135l.277.087c.817.26 1.73.551 2.523.114 1.305-.749 2.536-1.615 3.765-2.48.403-.284.806-.568 1.211-.847a8.69 8.69 0 00.064-.041c.346-.224 1.122-.728.835-.034-.68.743-1.407 1.4-2.138 2.062-.493.445-.988.892-1.471 1.368-.42.342-.858 1.03-.386 1.508 1.085.76 2.186 1.5 3.288 2.241l1.074.724c.606.484 1.553.092 1.687-.664l.178-1.043c.328-1.923.657-3.846.948-5.774.04-.303.084-.605.13-.908.108-.734.216-1.468.25-2.205-.087-.736-.98-.575-1.476-.41-2.553.972-5.08 2.015-7.597 3.077-.285.127-.574.253-.865.38z"/></symbol><symbol viewBox="0 0 16 16" id="viber" xmlns="http://www.w3.org/2000/svg"><path d="M8 1.335c-1.071.013-3.374.19-4.662 1.37-.958.948-1.292 2.35-1.331 4.084-.033 1.728-.072 4.973 3.058 5.856v1.346s-.02.538.337.648c.438.14.688-.275 1.105-.72l.778-.879c2.142.178 3.782-.232 3.97-.293.435-.139 2.883-.451 3.283-3.696.41-3.351-.2-5.463-1.301-6.418h-.007c-.332-.306-1.668-1.279-4.652-1.29 0 0-.222-.014-.578-.008zm.037.942a7.02 7.02 0 01.488.011c2.527.007 3.732.767 4.017 1.023.927.794 1.405 2.697 1.055 5.495-.332 2.713-2.317 2.885-2.685 3.002-.156.05-1.6.406-3.42.289 0 0-1.356 1.634-1.78 2.055-.067.074-.146.095-.196.085-.071-.018-.093-.107-.089-.229l.013-2.233c-2.655-.733-2.498-3.5-2.47-4.946.033-1.446.304-2.628 1.113-3.43 1.088-.982 3.043-1.115 3.953-1.122zm.2 1.446a.166.166 0 100 .332 3.136 3.136 0 012.242.883c.606.588.9 1.378.912 2.411 0 .092.074.167.167.167V7.51a.167.167 0 00.168-.165 3.588 3.588 0 00-1.009-2.646c-.66-.645-1.496-.977-2.48-.977zm-2.198.382a.523.523 0 00-.342.067H5.69a2.61 2.61 0 00-.637.523 1.003 1.003 0 00-.256.525.71.71 0 00.026.302l.01.006c.172.504.396.988.67 1.444a8.48 8.48 0 001.29 1.762l.015.022.024.017.015.018.017.015c.532.505 1.127.94 1.769 1.295.734.4 1.18.588 1.447.667v.004c.078.024.15.034.221.034.228-.016.444-.109.613-.262a2.53 2.53 0 00.517-.638v-.004c.128-.241.085-.469-.1-.623-.37-.323-.77-.61-1.195-.857-.285-.155-.574-.061-.69.095l-.25.315c-.129.156-.361.134-.361.134l-.007.004C7.093 8.527 6.63 6.772 6.63 6.772s-.022-.239.139-.36l.312-.252c.15-.122.254-.41.094-.695a7.498 7.498 0 00-.856-1.194.475.475 0 00-.28-.167zm2.486.495c-.221 0-.221.334.003.334A2.098 2.098 0 0110 5.572 1.94 1.94 0 0110.5 7a.168.168 0 00.167.165l.007.009a.169.169 0 00.167-.167c.015-.662-.191-1.218-.595-1.663C9.84 4.9 9.273 4.65 8.549 4.6h-.024zm.274.898c-.228-.006-.236.335-.01.341.55.029.816.306.851.877a.166.166 0 00.165.163h.007a.168.168 0 00.16-.178c-.039-.744-.445-1.164-1.166-1.202H8.8z"/></symbol><symbol viewBox="0 0 24 24" id="vk" xmlns="http://www.w3.org/2000/svg"><path d="M21.579 6.855c.14-.465 0-.806-.662-.806h-2.193c-.558 0-.813.295-.953.619 0 0-1.115 2.719-2.695 4.482-.51.513-.743.675-1.021.675-.139 0-.341-.162-.341-.627V6.855c0-.558-.161-.806-.626-.806H9.642c-.348 0-.558.258-.558.504 0 .528.79.65.871 2.138v3.228c0 .707-.127.836-.407.836-.743 0-2.551-2.73-3.624-5.853-.209-.607-.42-.852-.98-.852H2.752c-.627 0-.752.295-.752.619 0 .582.743 3.462 3.461 7.27 1.812 2.602 4.363 4.012 6.687 4.012 1.393 0 1.565-.313 1.565-.853v-1.966c0-.626.133-.752.574-.752.324 0 .882.164 2.183 1.417 1.486 1.486 1.732 2.153 2.567 2.153h2.192c.626 0 .939-.313.759-.931-.197-.615-.907-1.51-1.849-2.57-.512-.603-1.277-1.253-1.51-1.578-.325-.42-.231-.604 0-.976.001 0 2.672-3.761 2.95-5.04z"/></symbol><symbol viewBox="0 0 24 24" id="whatsapp" xmlns="http://www.w3.org/2000/svg"><path fill-rule="evenodd" clip-rule="evenodd" d="M0 12c0 6.627 5.373 12 12 12s12-5.373 12-12S18.627 0 12 0 0 5.373 0 12zm19.531-.46c-.002 3.934-3.201 7.135-7.135 7.136h-.003a7.13 7.13 0 01-3.41-.868L5.2 18.8l1.012-3.698a7.123 7.123 0 01-.952-3.567c0-3.934 3.202-7.135 7.136-7.135 1.908 0 3.7.744 5.047 2.093a7.093 7.093 0 012.088 5.048z"/><path fill-rule="evenodd" clip-rule="evenodd" d="M6.913 17.105l2.245-.59.217.13c.91.54 1.954.826 3.018.826h.002a5.94 5.94 0 005.931-5.93 5.895 5.895 0 00-1.735-4.197 5.89 5.89 0 00-4.193-1.739 5.94 5.94 0 00-5.933 5.93c0 1.121.313 2.213.906 3.157l.141.224-.599 2.189zm8.833-4.028c.125.06.208.1.244.16.045.075.045.432-.104.848-.148.417-.86.797-1.203.848a2.443 2.443 0 01-1.123-.07 10.193 10.193 0 01-1.016-.376c-1.672-.722-2.801-2.342-3.015-2.648l-.031-.044-.002-.002c-.094-.126-.726-.97-.726-1.843 0-.82.403-1.251.589-1.45l.035-.037a.655.655 0 01.475-.223 7.074 7.074 0 01.382.007c.104 0 .233-.002.361.305.05.118.121.294.197.478.154.374.323.786.353.846.044.09.074.193.015.313a7.454 7.454 0 00-.025.05 1.015 1.015 0 01-.154.247l-.091.11c-.061.074-.123.15-.176.202-.09.09-.182.186-.078.364.104.179.462.762.992 1.235.57.508 1.065.723 1.316.832.049.021.088.039.117.053.179.09.283.075.387-.044.104-.12.445-.521.564-.7.12-.178.238-.148.401-.089.164.06 1.04.491 1.219.58l.097.048z"/></symbol></svg>